<?xml version="1.0" encoding="UTF-8" standalone="no"?>
<svg width="312px" height="451px" viewBox="0 0 312 451" version="1.1" xmlns="http://www.w3.org/2000/svg" xmlns:xlink="http://www.w3.org/1999/xlink">
    <!-- Generator: Sketch 41.2 (35397) - http://www.bohemiancoding.com/sketch -->
    <title>pure-react-3d-cover</title>
    <desc>Created with Sketch.</desc>
    <defs>
        <linearGradient x1="0%" y1="46.8403041%" x2="100%" y2="46.8403047%" id="linearGradient-1">
            <stop stop-color="#FFFFFF" stop-opacity="0.5" offset="0%"></stop>
            <stop stop-color="#A9A9A9" stop-opacity="0.3" offset="0.357462142%"></stop>
            <stop stop-color="#FFFFFF" stop-opacity="0.6" offset="0.95624238%"></stop>
            <stop stop-color="#050505" stop-opacity="0.1" offset="3.51083229%"></stop>
            <stop stop-color="#FFFFFF" stop-opacity="0" offset="6.86909126%"></stop>
            <stop stop-color="#7F7F7F" stop-opacity="0.1" offset="97.9574813%"></stop>
            <stop stop-color="#FFFFFF" stop-opacity="0.1" offset="100%"></stop>
        </linearGradient>
        <rect id="path-2" x="0" y="0" width="300" height="439" rx="2.38095238"></rect>
        <filter x="-50%" y="-50%" width="200%" height="200%" filterUnits="objectBoundingBox" id="filter-3">
            <feOffset dx="0" dy="2" in="SourceAlpha" result="shadowOffsetOuter1"></feOffset>
            <feGaussianBlur stdDeviation="3" in="shadowOffsetOuter1" result="shadowBlurOuter1"></feGaussianBlur>
            <feComposite in="shadowBlurOuter1" in2="SourceAlpha" operator="out" result="shadowBlurOuter1"></feComposite>
            <feColorMatrix values="0 0 0 0 0   0 0 0 0 0   0 0 0 0 0  0 0 0 0.5 0" type="matrix" in="shadowBlurOuter1"></feColorMatrix>
        </filter>
    </defs>
    <g id="Page-1" stroke="none" stroke-width="1" fill="none" fill-rule="evenodd">
        <g id="Book-Cover-Customizable" transform="translate(-84.000000, -77.000000)">
            <g id="pure-react-3d-cover" transform="translate(90.000000, 81.000000)">
                <rect id="Rectangle" fill="#FFFFFF" x="0" y="0" width="300" height="439" rx="2.38095238"></rect>
                <g id="Book">
                    <use fill="black" fill-opacity="1" filter="url(#filter-3)" xlink:href="#path-2"></use>
                    <use fill-opacity="0.6" fill="url(#linearGradient-1)" fill-rule="evenodd" style="mix-blend-mode: multiply;" xlink:href="#path-2"></use>
                </g>
                <g id="Group" transform="translate(46.047619, 59.485095)">
                    <g id="react-logo" transform="translate(38.044743, 0.000000)">
                        <ellipse id="Oval" fill="#508FCA" cx="66.4497704" cy="70.7831001" rx="9.84647859" ry="10.2595258"></ellipse>
                        <ellipse id="Oval" stroke="#508FCA" stroke-width="3.15714286" cx="66.4497704" cy="70.7831001" rx="66.4497704" ry="26.3760967"></ellipse>
                        <ellipse id="Oval" stroke="#508FCA" stroke-width="3.15714286" transform="translate(66.449770, 70.783100) rotate(120.000000) translate(-66.449770, -70.783100) " cx="66.4497704" cy="70.7831001" rx="66.4497704" ry="26.3760967"></ellipse>
                        <ellipse id="Oval" stroke="#508FCA" stroke-width="3.15714286" transform="translate(66.449770, 70.783100) rotate(60.000000) translate(-66.449770, -70.783100) " cx="66.4497704" cy="70.7831001" rx="66.4497704" ry="26.3760967"></ellipse>
                    </g>
                    <path d="M0.619028739,186.094411 L0.619028739,213.365749 L6.83358821,213.365749 L6.83358821,203.250561 L10.5689351,203.250561 C15.8909781,203.250561 19.8907743,200.110225 19.8907743,194.490677 C19.8907743,188.838072 15.8909781,186.094411 10.5689351,186.094411 L0.619028739,186.094411 Z M6.83358821,198.292136 L6.83358821,191.052836 L8.58556508,191.052836 C11.0317215,191.052836 13.3456532,191.87924 13.3456532,194.689014 C13.3456532,197.465732 11.0317215,198.292136 8.58556508,198.292136 L6.83358821,198.292136 Z M43.5920464,186.094411 L37.3774869,186.094411 L37.3774869,201.862202 C37.3774869,206.423953 35.9891279,207.7462 32.9479605,207.7462 C29.9067931,207.7462 28.518434,206.423953 28.518434,201.862202 L28.518434,186.094411 L22.3038746,186.094411 L22.3038746,203.680292 C22.3038746,210.42375 26.0061653,213.861591 32.9479605,213.861591 C39.8897556,213.861591 43.5920464,210.42375 43.5920464,203.680292 L43.5920464,186.094411 Z M47.2282248,186.094411 L47.2282248,213.365749 L53.4427842,213.365749 L53.4427842,202.589438 L61.7729384,213.365749 L69.6733624,213.365749 L60.2854109,202.093596 C63.6240838,201.035798 65.8719032,198.292136 65.8719032,194.193172 C65.8719032,188.838072 62.0373878,186.094411 56.9797942,186.094411 L47.2282248,186.094411 Z M53.4427842,198.192968 L53.4427842,191.052836 L54.1700199,191.052836 C56.5170078,191.052836 59.326782,191.218116 59.326782,194.622902 C59.326782,198.027687 56.5170078,198.192968 54.1700199,198.192968 L53.4427842,198.192968 Z M86.4989516,186.094411 L70.8964406,186.094411 L70.8964406,213.365749 L86.4989516,213.365749 L86.4989516,207.911481 L77.1110001,207.911481 L77.1110001,202.424157 L86.1022776,202.424157 L86.1022776,196.96989 L77.1110001,196.96989 L77.1110001,191.548678 L86.4989516,191.548678 L86.4989516,186.094411 Z M99.0933514,186.094411 L99.0933514,213.365749 L105.307911,213.365749 L105.307911,202.589438 L113.638065,213.365749 L121.538489,213.365749 L112.150538,202.093596 C115.48921,201.035798 117.73703,198.292136 117.73703,194.193172 C117.73703,188.838072 113.902514,186.094411 108.844921,186.094411 L99.0933514,186.094411 Z M105.307911,198.192968 L105.307911,191.052836 L106.035147,191.052836 C108.382134,191.052836 111.191909,191.218116 111.191909,194.622902 C111.191909,198.027687 108.382134,198.192968 106.035147,198.192968 L105.307911,198.192968 Z M138.364078,186.094411 L122.761567,186.094411 L122.761567,213.365749 L138.364078,213.365749 L138.364078,207.911481 L128.976127,207.911481 L128.976127,202.424157 L137.967404,202.424157 L137.967404,196.96989 L128.976127,196.96989 L128.976127,191.548678 L138.364078,191.548678 L138.364078,186.094411 Z M155.784679,186.094411 L150.032905,186.094411 L139.025202,213.365749 L145.702547,213.365749 L147.718974,207.911481 L158.09861,207.911481 L160.115036,213.365749 L166.792382,213.365749 L155.784679,186.094411 Z M155.983016,202.457213 L149.834568,202.457213 L152.875736,194.523733 L152.941848,194.523733 L155.983016,202.457213 Z M182.361837,207.7462 C176.114221,207.7462 173.37056,203.382786 173.37056,199.713551 C173.37056,196.077373 176.114221,191.713959 182.361837,191.713959 C185.535229,191.713959 187.716936,193.399824 187.716936,193.399824 L190.36143,188.110837 C190.36143,188.110837 187.320262,185.598568 181.403208,185.598568 C173.668065,185.598568 166.627101,191.945352 166.627101,199.779664 C166.627101,207.580919 173.701121,213.861591 181.403208,213.861591 C187.320262,213.861591 190.36143,211.349322 190.36143,211.349322 L187.716936,206.060336 C187.716936,206.060336 185.535229,207.7462 182.361837,207.7462 Z M191.022553,191.548678 L197.501562,191.548678 L197.501562,213.365749 L203.716121,213.365749 L203.716121,191.548678 L210.19513,191.548678 L210.19513,186.094411 L191.022553,186.094411 L191.022553,191.548678 Z" id="title" fill="#495158"></path>
                    <path d="M53.1008474,345.537747 L53.1008474,355.896347 L57.0268473,355.896347 C58.6123472,355.896347 59.9411472,354.884647 59.9411472,353.148147 C59.9411472,351.819347 59.1408472,350.837847 58.1140472,350.520747 L58.1140472,350.460347 C59.0049472,350.143247 59.6995472,349.267447 59.6995472,348.074547 C59.6995472,346.549447 58.5670472,345.537747 57.0268473,345.537747 L53.1008474,345.537747 Z M54.4296474,346.745747 L56.7248473,346.745747 C57.6761473,346.745747 58.3103472,347.274247 58.3103472,348.361447 C58.3103472,349.237247 57.6459473,349.992247 56.6342473,349.992247 L54.4296474,349.992247 L54.4296474,346.745747 Z M54.4296474,351.200247 L56.7550473,351.200247 C57.8573473,351.200247 58.5519472,352.030747 58.5519472,352.966947 C58.5519472,354.084347 57.8271473,354.688347 56.8456473,354.688347 L54.4296474,354.688347 L54.4296474,351.200247 Z M65.180847,351.607947 L68.5179469,345.537747 L67.234447,345.537747 L64.6523471,350.339547 L64.5919471,350.339547 L61.9645471,345.537747 L60.4998472,345.537747 L63.8520471,351.607947 L63.8520471,355.896347 L65.180847,355.896347 L65.180847,351.607947 Z M73.1385468,355.896347 L76.3548467,355.896347 C78.8010466,355.896347 80.2808466,354.114547 80.2808466,350.566047 C80.2808466,347.228947 78.8010466,345.537747 76.3548467,345.537747 L73.1385468,345.537747 L73.1385468,355.896347 Z M74.4673468,346.745747 L76.2340467,346.745747 C77.8648467,346.745747 78.8916466,347.878247 78.8916466,350.188547 L78.8916466,350.943547 C78.8916466,353.465247 77.8648467,354.688347 76.2340467,354.688347 L74.4673468,354.688347 L74.4673468,346.745747 Z M87.1513464,353.586047 L87.8610464,355.896347 L89.2955463,355.896347 L86.0037464,345.537747 L84.2974465,345.537747 L81.0056466,355.896347 L82.3344465,355.896347 L83.0441465,353.586047 L87.1513464,353.586047 Z M83.4065465,352.378047 L84.8259465,347.772547 C84.9316465,347.440347 85.0675465,346.624947 85.0675465,346.624947 L85.1279465,346.624947 C85.1279465,346.624947 85.2638465,347.425247 85.3695465,347.772547 L86.7738464,352.378047 L83.4065465,352.378047 Z M94.2634462,355.896347 L97.4193461,345.537747 L96.1358461,345.537747 L93.4933462,354.431647 L93.4329462,354.431647 L90.8659463,345.537747 L89.4012463,345.537747 L92.5571463,355.896347 L94.2634462,355.896347 Z M98.5971461,355.896347 L105.075046,355.896347 L105.075046,354.688347 L99.925946,354.688347 L99.925946,351.200247 L104.320046,351.200247 L104.320046,349.992247 L99.925946,349.992247 L99.925946,346.745747 L104.984446,346.745747 L104.984446,345.537747 L98.5971461,345.537747 L98.5971461,355.896347 Z M113.953846,345.356547 C111.266046,345.356547 109.876846,347.123247 109.876846,350.717047 C109.876846,354.310847 111.266046,356.077547 113.953846,356.077547 C116.067846,356.077547 117.562746,354.854447 117.562746,352.181747 L116.249046,352.181747 C116.249046,353.978647 115.343046,354.854447 113.953846,354.854447 C112.141846,354.854447 111.266046,353.616247 111.266046,351.094547 L111.266046,350.339547 C111.266046,347.817847 112.141846,346.579647 113.953846,346.579647 C115.312846,346.579647 116.203746,347.470547 116.203746,349.282547 L117.562746,349.282547 C117.562746,346.640047 116.067846,345.356547 113.953846,345.356547 Z M119.238845,355.896347 L125.716745,355.896347 L125.716745,354.688347 L120.567645,354.688347 L120.567645,351.200247 L124.961745,351.200247 L124.961745,349.992247 L120.567645,349.992247 L120.567645,346.745747 L125.626145,346.745747 L125.626145,345.537747 L119.238845,345.537747 L119.238845,355.896347 Z M127.498545,355.896347 L130.714845,355.896347 C133.161045,355.896347 134.640845,354.114547 134.640845,350.566047 C134.640845,347.228947 133.161045,345.537747 130.714845,345.537747 L127.498545,345.537747 L127.498545,355.896347 Z M128.827345,346.745747 L130.594045,346.745747 C132.224845,346.745747 133.251645,347.878247 133.251645,350.188547 L133.251645,350.943547 C133.251645,353.465247 132.224845,354.688347 130.594045,354.688347 L128.827345,354.688347 L128.827345,346.745747 Z M136.437745,355.896347 L139.654045,355.896347 C142.100245,355.896347 143.580045,354.114547 143.580045,350.566047 C143.580045,347.228947 142.100245,345.537747 139.654045,345.537747 L136.437745,345.537747 L136.437745,355.896347 Z M137.766545,346.745747 L139.533245,346.745747 C141.164045,346.745747 142.190845,347.878247 142.190845,350.188547 L142.190845,350.943547 C142.190845,353.465247 141.164045,354.688347 139.533245,354.688347 L137.766545,354.688347 L137.766545,346.745747 Z M146.705745,355.896347 L146.705745,345.537747 L145.376945,345.537747 L145.376945,355.896347 L146.705745,355.896347 Z M153.893344,353.586047 L154.603044,355.896347 L156.037544,355.896347 L152.745745,345.537747 L151.039445,345.537747 L147.747645,355.896347 L149.076445,355.896347 L149.786145,353.586047 L153.893344,353.586047 Z M150.148545,352.378047 L151.567945,347.772547 C151.673645,347.440347 151.809545,346.624947 151.809545,346.624947 L151.869945,346.624947 C151.869945,346.624947 152.005845,347.425247 152.111545,347.772547 L153.515844,352.378047 L150.148545,352.378047 Z" id="author" fill="#272727"></path>
                </g>
            </g>
        </g>
    </g>
</svg>